<?xml version="1.0" encoding="utf-8"?>
<!-- Generator: Adobe Illustrator 28.1.0, SVG Export Plug-In . SVG Version: 6.00 Build 0)  -->
<svg version="1.1" id="レイヤー_1" xmlns="http://www.w3.org/2000/svg" xmlns:xlink="http://www.w3.org/1999/xlink" x="0px"
	 y="0px" viewBox="0 0 141.73 157.77" style="enable-background:new 0 0 141.73 157.77;" xml:space="preserve">
<style type="text/css">
	.st0{fill:#898989;}
</style>
<path class="st0" d="M140.21,147.57l-37.39-42.71c12.05-11.45,18.87-27.15,18.87-44.02C121.69,27.29,94.39,0,60.84,0
	S0,27.29,0,60.84c0,33.55,27.29,60.84,60.84,60.84c11.57,0,22.6-3.2,32.25-9.26l37.86,43.25c1.22,1.39,2.92,2.1,4.63,2.1
	c1.44,0,2.88-0.5,4.05-1.52C142.19,154.01,142.45,150.12,140.21,147.57z M12.3,60.84c0-26.77,21.78-48.55,48.55-48.55
	c26.77,0,48.55,21.78,48.55,48.55c0,15.21-6.93,29.26-19.02,38.54c-8.53,6.55-18.74,10.01-29.53,10.01
	C34.07,109.39,12.3,87.61,12.3,60.84z"/>
</svg>
